<svg xmlns="http://www.w3.org/2000/svg" width="134" height="129" viewBox="0 0 134 129" fill="none"><g clip-path="url(#clip0_1_199)"><path d="M7.56897 112.754C7.56897 113.079 7.34343 113.331 6.9056 113.51C6.55402 113.643 6.18917 113.709 5.80442 113.709C4.42461 113.709 3.21729 113.338 2.18244 112.588C1.02818 111.753 0.45105 110.679 0.45105 109.346C0.45105 108.013 1.00828 106.886 2.12937 105.977C3.17749 105.135 4.37818 104.711 5.75135 104.711C6.0764 104.711 6.36164 104.757 6.61372 104.857C6.95867 105.003 7.13778 105.215 7.13778 105.493C7.13778 105.831 6.94541 105.997 6.56065 105.997C6.42135 105.997 6.1958 105.971 5.90392 105.904C5.61204 105.845 5.3865 105.818 5.24719 105.818C4.33174 105.818 3.5755 106.103 2.96521 106.68C2.36154 107.257 2.0564 108 2.0564 108.915C2.0564 109.83 2.48095 110.699 3.33006 111.514C4.17917 112.33 5.06145 112.734 5.99016 112.734C6.06976 112.734 6.18917 112.708 6.34174 112.655C6.49432 112.602 6.60709 112.575 6.69333 112.575H7.48937C7.54907 112.681 7.58224 112.748 7.58224 112.754H7.56897ZM21.9773 109.459C21.9773 110.341 21.4997 111.256 20.5444 112.21C19.5892 113.165 18.6804 113.643 17.8113 113.643C16.478 113.643 15.3702 113.298 14.4746 112.608C13.4862 111.846 12.9953 110.818 12.9953 109.512C12.9953 108.278 13.4663 107.217 14.4215 106.329C15.3702 105.434 16.4647 104.989 17.6986 104.989C19.0452 104.989 20.0933 105.394 20.8429 106.203C21.5925 107.012 21.9707 108.099 21.9707 109.459H21.9773ZM20.2857 109.697C20.2857 108.65 20.0071 107.788 19.4565 107.124C18.8661 106.422 18.0634 106.077 17.0418 106.077C16.6438 106.077 16.1728 106.296 15.6222 106.727C15.1645 107.091 14.8793 107.449 14.7599 107.814C14.6736 108.066 14.6338 108.53 14.6338 109.207C14.6338 110.035 14.939 110.818 15.5559 111.541C16.1662 112.263 16.8826 112.628 17.6986 112.628C19.43 112.628 20.2923 111.653 20.2923 109.697H20.2857ZM36.8433 109.624C36.8433 109.697 36.85 109.929 36.8632 110.321C36.8765 110.712 36.8831 111.043 36.8831 111.309C36.8831 112.9 36.6244 113.696 36.107 113.696C35.8814 113.696 35.6758 113.643 35.4967 113.537C35.2778 113.417 35.1716 113.252 35.1716 113.046C35.1716 112.681 35.1915 112.144 35.2313 111.428C35.2711 110.712 35.291 110.168 35.291 109.81C35.291 107.118 34.3424 105.772 32.4386 105.772C31.218 105.772 30.6143 106.647 30.6209 108.398V112.973C30.6209 113.145 30.5214 113.291 30.3224 113.417C30.1234 113.543 29.931 113.61 29.7519 113.61C29.1881 113.61 28.9095 112.721 28.9095 110.951C28.9095 110.52 28.9227 110.022 28.9559 109.478C28.9824 108.928 29.0023 108.663 29.0023 108.676C29.0023 108.471 28.9891 108.152 28.9559 107.728C28.9227 107.297 28.9095 106.979 28.9095 106.76C28.9095 105.599 29.2146 105.022 29.8249 105.022C29.9908 105.022 30.2428 105.056 30.5745 105.129C30.9062 105.201 31.1516 105.235 31.3241 105.235C31.6359 105.235 32.087 105.142 32.6774 104.956C33.2678 104.77 33.7189 104.678 34.0307 104.678C34.5016 104.678 35.039 104.883 35.6559 105.294C36.306 105.739 36.6576 106.183 36.7173 106.614C36.8035 107.264 36.8433 108.272 36.8433 109.638V109.624ZM50.3163 110.652C50.3163 111.607 49.8254 112.396 48.837 113.026C47.9812 113.57 47.0592 113.842 46.0641 113.842C44.5251 113.842 43.749 113.437 43.7357 112.628C43.8418 112.436 43.9811 112.336 44.147 112.336C44.4455 112.336 44.8767 112.423 45.4273 112.588C45.9779 112.754 46.4024 112.84 46.6877 112.84C47.1454 112.84 47.5567 112.741 47.9348 112.535C48.3793 112.283 48.6048 111.945 48.6048 111.521C48.6048 111.05 48.1803 110.579 47.3245 110.108C46.5285 109.711 45.7391 109.306 44.943 108.895C44.0807 108.364 43.6428 107.794 43.6428 107.177C43.6428 106.488 44.0475 105.858 44.8502 105.274C45.5931 104.757 46.3295 104.499 47.0459 104.499C48.2267 104.499 48.8105 104.797 48.8105 105.387C48.6048 105.553 48.3395 105.639 48.0144 105.639C47.8817 105.639 47.6827 105.619 47.4174 105.586C47.152 105.546 46.953 105.533 46.8204 105.533C46.5351 105.533 46.2565 105.639 45.9911 105.858C45.7258 106.077 45.5931 106.329 45.5931 106.62C45.5931 107.065 45.9978 107.469 46.8204 107.834C47.5633 108.172 48.3129 108.51 49.0758 108.849C49.8917 109.333 50.303 109.936 50.303 110.659L50.3163 110.652ZM65.0497 112.966C65.0497 113.351 64.8109 113.543 64.3266 113.543C64.174 113.543 63.9418 113.523 63.6367 113.484C63.3315 113.444 63.0994 113.417 62.9402 113.417C62.6416 113.417 62.2105 113.51 61.6532 113.709C61.096 113.901 60.6648 114.001 60.3663 114.001C59.1258 114.001 58.2701 113.523 57.7858 112.569C57.4475 111.892 57.2816 110.864 57.2816 109.492V107.264C57.2816 107.144 57.2684 106.952 57.2485 106.693C57.2219 106.435 57.2153 106.229 57.2153 106.09C57.2153 105.871 57.3082 105.646 57.4807 105.4C57.6598 105.155 57.8588 105.042 58.071 105.042C58.071 105.042 58.2236 105.109 58.5354 105.241C58.7211 105.745 58.8339 106.355 58.8605 107.071C58.8605 106.76 58.8605 107.376 58.8605 108.935C58.8605 109.817 59.0396 110.619 59.3978 111.342C59.8555 112.257 60.4724 112.714 61.2552 112.714C62.6483 112.714 63.3448 111.461 63.3448 108.948C63.3448 108.696 63.3382 108.358 63.3183 107.933C63.2984 107.509 63.2917 107.237 63.2917 107.118C63.2917 105.851 63.6168 105.215 64.2536 105.215C64.718 105.215 64.917 105.924 64.8573 107.35V107.37C64.8573 107.575 64.8905 107.887 64.9568 108.311C65.0231 108.736 65.0563 109.054 65.0563 109.273V112.966H65.0497ZM74.1643 113.092C74.1643 113.457 73.9122 113.636 73.4081 113.636C72.7978 113.636 72.486 113.344 72.486 112.767C72.486 112.237 72.5059 111.448 72.5457 110.4C72.5855 109.352 72.612 108.563 72.612 108.046C72.612 107.37 72.5921 106.355 72.5457 104.996C72.5059 103.637 72.486 102.622 72.486 101.946C72.486 101.501 72.7513 101.276 73.2688 101.276C73.8658 101.276 74.1643 101.912 74.1643 103.179C74.1643 103.517 74.1378 103.981 74.0913 104.585C74.0449 105.182 74.0184 105.56 74.0184 105.719C74.0184 106.541 74.0449 107.768 74.0913 109.412C74.1378 111.05 74.1643 112.283 74.1643 113.106V113.092ZM85.1696 105.003L85.1497 105.201C84.7251 105.374 84.3072 105.54 83.8893 105.712C83.4581 105.951 83.2392 106.315 83.2392 106.8V110.586C83.2392 111.01 83.4514 111.441 83.8694 111.886C84.2077 112.244 84.5526 112.608 84.8976 112.973C84.8976 113.205 84.7516 113.391 84.4664 113.537C84.2342 113.643 84.002 113.696 83.7632 113.696C82.2706 113.696 81.5277 112.277 81.5277 109.445C81.5277 109.12 81.5409 108.689 81.5542 108.159C81.5741 107.628 81.5808 107.277 81.5808 107.111C81.5808 106.892 81.468 106.594 81.2491 106.216C81.0302 105.838 80.9174 105.546 80.9174 105.341C81.3287 104.784 81.9058 103.922 82.6488 102.755L82.8478 102.735C83.0402 102.735 83.1994 102.847 83.3188 103.08C83.3917 103.272 83.4713 103.471 83.5509 103.676C83.6106 103.835 83.8495 104.034 84.274 104.273C84.5593 104.439 84.8511 104.618 85.1364 104.797L85.1762 105.016L85.1696 105.003ZM99.5779 109.452C99.5779 110.334 99.1003 111.249 98.145 112.204C97.1898 113.159 96.281 113.636 95.4119 113.636C94.0786 113.636 92.9641 113.291 92.0752 112.602C91.0868 111.839 90.5959 110.811 90.5959 109.505C90.5959 108.272 91.0735 107.211 92.0155 106.322C92.9641 105.427 94.0587 104.983 95.2992 104.983C96.6458 104.983 97.6939 105.387 98.4435 106.196C99.1931 107.005 99.5713 108.093 99.5713 109.452H99.5779ZM97.8863 109.691C97.8863 108.643 97.6077 107.781 97.0571 107.118C96.4667 106.415 95.664 106.07 94.6424 106.07C94.2444 106.07 93.7734 106.289 93.2228 106.72C92.7651 107.085 92.4799 107.443 92.3605 107.807C92.2742 108.059 92.2344 108.524 92.2344 109.2C92.2344 110.029 92.5396 110.811 93.1565 111.534C93.7668 112.257 94.4832 112.622 95.2992 112.622C97.0306 112.622 97.8929 111.647 97.8929 109.691H97.8863ZM110.663 105.599C110.663 105.911 110.53 106.097 110.265 106.143C109.668 106.256 109.369 106.309 109.369 106.309C108.991 106.475 108.693 106.853 108.474 107.429C108.202 108.152 108.062 108.603 108.062 108.789V112.933C108.062 113.139 107.983 113.311 107.837 113.45C107.684 113.59 107.505 113.656 107.286 113.656C106.742 113.656 106.477 113.026 106.477 111.753C106.477 111.514 106.51 111.156 106.57 110.685C106.629 110.215 106.656 109.863 106.656 109.638C106.656 109.313 106.629 108.835 106.57 108.199C106.51 107.569 106.477 107.091 106.477 106.78C106.477 105.732 106.795 105.201 107.432 105.201C107.598 105.201 107.843 105.228 108.155 105.281C108.467 105.334 108.706 105.361 108.878 105.361C109.024 105.361 109.23 105.294 109.502 105.162C109.774 105.029 109.986 104.963 110.139 104.963C110.49 104.963 110.663 105.175 110.663 105.599ZM119.015 102.576C119.015 103.08 118.855 103.438 118.53 103.643C118.471 103.69 118.404 103.729 118.331 103.749C118.092 103.749 117.88 103.643 117.701 103.424C117.522 103.206 117.429 102.973 117.429 102.721C117.429 102.131 117.747 101.833 118.384 101.833C118.802 101.833 119.015 102.078 119.015 102.576ZM119.141 106.959C119.141 107.184 119.127 107.536 119.107 108C119.087 108.464 119.074 108.809 119.074 109.041V112.946C119.074 113.139 119.001 113.298 118.855 113.424C118.709 113.55 118.537 113.616 118.338 113.616C117.847 113.616 117.602 113.258 117.602 112.549V107.357C117.602 107.284 117.588 107.177 117.555 107.032C117.529 106.886 117.509 106.78 117.509 106.707C117.509 105.672 117.807 105.148 118.411 105.148C118.902 105.148 119.147 105.752 119.147 106.959H119.141ZM133.967 112.933C133.967 113.126 133.881 113.311 133.715 113.484C133.549 113.656 133.356 113.742 133.157 113.742C132.527 113.742 132.083 113.576 131.817 113.232C131.579 112.933 131.459 112.449 131.459 111.786V111.043C131.459 110.413 131.36 109.956 131.154 109.671C130.915 109.333 130.491 109.167 129.894 109.167C129.403 109.167 128.925 109.326 128.467 109.657C127.95 110.009 127.691 110.42 127.691 110.904C127.691 111.448 127.904 111.899 128.322 112.263C128.753 112.542 129.191 112.827 129.635 113.112C129.529 113.537 129.065 113.749 128.249 113.749C127.552 113.749 126.988 113.53 126.557 113.099C126.126 112.661 125.907 112.098 125.907 111.395C125.907 110.453 126.365 109.777 127.273 109.372C128.129 109.127 128.978 108.888 129.834 108.65C130.749 108.371 131.207 107.914 131.207 107.277C131.207 106.773 130.988 106.415 130.557 106.209C130.305 106.103 129.88 106.024 129.277 105.971C128.726 105.937 128.395 105.865 128.288 105.752V105.48C128.288 105.109 128.746 104.916 129.668 104.916C130.962 104.916 131.831 105.221 132.288 105.838C132.607 106.282 132.773 107.065 132.773 108.172V109.837C132.773 110.427 132.972 111.083 133.37 111.806C133.768 112.529 133.967 112.907 133.967 112.927V112.933Z" fill="white"></path><path d="M31.6094 64.6855C31.6094 67.7756 31.5762 72.3841 31.5033 78.5311C31.4369 84.6714 31.3971 89.2667 31.3971 92.3236C31.3971 94.7572 30.4684 95.9773 28.6176 95.9773C26.7668 95.9773 25.8381 94.4124 25.8381 91.2958C25.8381 90.573 25.9177 89.5187 26.0703 88.1328C26.2229 86.7403 26.3025 85.686 26.3025 84.9698C26.3025 81.8466 25.6524 79.791 24.3455 78.7963C23.2842 78.0072 21.1349 77.6094 17.9109 77.6094C13.5194 77.6094 10.9787 77.6624 10.2888 77.7619C8.47119 78.0006 7.24396 78.7499 6.60713 79.9899C5.9703 81.2233 5.65188 83.5574 5.65188 86.9724C5.65188 87.6686 5.74475 88.6699 5.93713 90.0028C6.12287 91.329 6.22238 92.3302 6.22238 92.9801C6.22238 93.9482 5.74475 94.7042 4.78287 95.2612C3.99347 95.7386 3.08465 95.9839 2.05644 95.9839C1.26703 95.9839 0.749604 95.7253 0.510792 95.2147C0.404653 94.976 0.358218 94.0875 0.358218 92.5822C0.358218 90.8582 0.437822 88.0267 0.590396 84.0879C0.74297 80.1491 0.822574 77.9741 0.822574 77.563C0.822574 75.8389 0.683267 73.2992 0.411287 69.924C0.139307 66.5554 0 64.0224 0 62.3447C0 60.5477 1.35327 59.6592 4.06644 59.6592C5.3003 59.6592 5.91723 61.065 5.91723 63.8765C5.91723 64.6325 5.87743 65.6006 5.78455 66.7809C5.69832 67.9679 5.65852 68.6442 5.65852 68.81C5.65852 71.2104 6.65357 72.8947 8.63703 73.8562C10.0765 74.5458 12.2325 74.884 15.1049 74.884C15.755 74.884 16.6837 74.8641 17.8777 74.831C19.0784 74.7978 19.9209 74.7779 20.3985 74.7779C22.6208 74.7779 24.1996 74.1612 25.1151 72.9212C25.805 71.9597 26.1433 70.4876 26.1433 68.4983C26.1433 67.8817 26.0902 66.9533 25.9907 65.7199C25.8846 64.4866 25.8381 63.5914 25.8381 63.041C25.8381 62.0795 26.2494 61.2904 27.0853 60.6737C27.815 60.1565 28.684 59.8979 29.6856 59.8979C30.9659 59.8979 31.6094 61.496 31.6094 64.6855ZM57.0429 94.0676C57.0429 94.618 56.8041 95.1418 56.3331 95.6391C55.8554 96.1365 55.3181 96.3818 54.7476 96.3818C52.9366 96.3818 51.6696 95.9044 50.9134 94.9429C50.2367 94.0875 49.8918 92.7148 49.8918 90.825V88.7163C49.8918 86.9326 49.5999 85.6263 49.0161 84.804C48.3329 83.8425 47.1322 83.3651 45.4141 83.3651C44.0077 83.3651 42.6478 83.8293 41.3476 84.7576C39.875 85.7523 39.132 86.9392 39.132 88.3052C39.132 89.8502 39.7356 91.1367 40.9363 92.1645C42.1702 92.9536 43.424 93.7559 44.6976 94.5848C44.3858 95.785 43.0657 96.3884 40.7307 96.3884C38.7406 96.3884 37.1286 95.7718 35.8948 94.5384C34.6609 93.305 34.044 91.6937 34.044 89.7044C34.044 87.0254 35.3442 85.1091 37.9578 83.942C40.3924 83.2524 42.8336 82.5694 45.2681 81.8864C47.8752 81.0973 49.182 79.791 49.182 77.9741C49.182 76.5351 48.5651 75.5206 47.3312 74.9371C46.6081 74.6254 45.3942 74.4066 43.676 74.2673C42.0972 74.1679 41.1552 73.9623 40.8435 73.6506V72.8814C40.8435 71.8139 42.1569 71.2834 44.7905 71.2834C48.4788 71.2834 50.9797 72.1587 52.2799 73.9093C53.1953 75.1758 53.6597 77.3905 53.6597 80.5469V85.2815C53.6597 86.9657 54.2236 88.8357 55.3579 90.8913C56.4923 92.9536 57.0561 94.0145 57.0561 94.0808L57.0429 94.0676ZM89.9923 64.6324C89.9923 66.0714 89.5279 67.0859 88.5992 67.6695C88.4267 67.8087 88.241 67.9082 88.0354 67.9811C87.3455 67.9811 86.7484 67.6695 86.231 67.0528C85.7136 66.4361 85.4615 65.7664 85.4615 65.0436C85.4615 63.3593 86.3703 62.5238 88.1879 62.5238C89.3886 62.5238 89.9923 63.2267 89.9923 64.6324ZM90.3505 77.0855C90.3505 77.7354 90.3173 78.7234 90.2444 80.043C90.1714 81.3625 90.1382 82.3506 90.1382 83.0004V94.114C90.1382 94.6644 89.9326 95.1153 89.5147 95.48C89.0967 95.8381 88.5992 96.0237 88.0287 96.0237C86.6224 96.0237 85.9192 95.0092 85.9192 92.9867V78.2194C85.9192 78.0139 85.8794 77.7022 85.7932 77.2911C85.7069 76.88 85.6671 76.5683 85.6671 76.3627C85.6671 73.4119 86.5229 71.9398 88.241 71.9398C89.6473 71.9398 90.3505 73.6573 90.3505 77.0855ZM100.646 94.5317C100.646 95.5596 99.9229 96.0768 98.4834 96.0768C96.7321 96.0768 95.8564 95.2545 95.8564 93.61C95.8564 92.0982 95.9161 89.8502 96.0356 86.8663C96.155 83.8823 96.2147 81.6543 96.2147 80.1756C96.2147 78.2526 96.155 75.3615 96.0356 71.5022C95.9161 67.6429 95.8564 64.7518 95.8564 62.8288C95.8564 61.5623 96.5994 60.9257 98.0986 60.9257C99.7968 60.9257 100.646 62.7293 100.646 66.33C100.646 67.2915 100.58 68.6177 100.44 70.3219C100.301 72.0194 100.235 73.0936 100.235 73.5379C100.235 75.872 100.301 79.3666 100.44 84.0348C100.58 88.7031 100.646 92.1976 100.646 94.5317ZM110.63 64.6324C110.63 66.0714 110.165 67.0859 109.237 67.6695C109.064 67.8087 108.878 67.9082 108.673 67.9811C107.983 67.9811 107.386 67.6695 106.868 67.0528C106.351 66.4361 106.099 65.7664 106.099 65.0436C106.099 63.3593 107.008 62.5238 108.825 62.5238C110.026 62.5238 110.63 63.2267 110.63 64.6324ZM110.988 77.0855C110.988 77.7354 110.955 78.7234 110.882 80.043C110.815 81.3625 110.776 82.3506 110.776 83.0004V94.114C110.776 94.6644 110.57 95.1153 110.152 95.48C109.734 95.8381 109.237 96.0237 108.666 96.0237C107.26 96.0237 106.557 95.0092 106.557 92.9867V78.2194C106.557 78.0139 106.517 77.7022 106.431 77.2911C106.344 76.88 106.304 76.5683 106.304 76.3627C106.304 73.4119 107.16 71.9398 108.878 71.9398C110.285 71.9398 110.988 73.6573 110.988 77.0855ZM134 87.5824C134 90.2945 132.594 92.5424 129.781 94.3262C127.346 95.8712 124.7 96.6404 121.854 96.6404C117.462 96.6404 115.247 95.4932 115.213 93.1923C115.519 92.6419 115.917 92.37 116.401 92.37C117.257 92.37 118.477 92.6088 120.056 93.0928C121.635 93.5702 122.836 93.8156 123.658 93.8156C124.965 93.8156 126.146 93.5238 127.207 92.9403C128.474 92.2175 129.111 91.256 129.111 90.0558C129.111 88.7163 127.89 87.3769 125.456 86.044C123.187 84.9101 120.925 83.763 118.663 82.5959C116.189 81.084 114.955 79.4594 114.955 77.7088C114.955 75.7527 116.102 73.9557 118.404 72.3045C120.534 70.8325 122.623 70.0898 124.686 70.0898C128.05 70.0898 129.728 70.9319 129.728 72.6096C129.144 73.087 128.388 73.3324 127.466 73.3324C127.088 73.3324 126.524 73.2793 125.768 73.1798C125.011 73.0737 124.448 73.0273 124.069 73.0273C123.247 73.0273 122.457 73.339 121.701 73.9557C120.945 74.5724 120.567 75.2951 120.567 76.1174C120.567 77.3905 121.734 78.5377 124.069 79.5655C126.199 80.527 128.341 81.4885 130.504 82.45C132.839 83.8226 134.007 85.5401 134.007 87.5957L134 87.5824Z" fill="#009E3C"></path><path d="M19.8811 13.2689C19.5229 12.2013 19.0519 11.2995 18.435 10.6364C17.8181 9.97989 17.022 9.58203 16.0933 9.58203C15.0916 9.58203 13.9705 10.0197 12.6902 10.948H12.677L12.6637 10.9679C15.4167 10.8088 16.4515 12.997 16.7965 15.4638C17.1746 18.1758 16.7832 22.36 16.7832 22.6717C16.7832 24.0775 16.6572 26.4315 16.5842 27.194C16.1795 31.6501 15.6886 37.1936 15.6886 42.4388C15.6886 47.4452 16.1265 52.1798 17.5461 55.4886L17.7119 55.8666L18.0436 55.6213C18.1232 55.5616 18.1431 55.5152 18.163 55.4754C18.1962 55.4024 18.2094 55.3494 18.2227 55.2831C18.2758 55.0377 18.3023 54.6399 18.3421 54.0563C18.4549 52.0471 18.5345 48.0354 18.7335 43.7119C18.9325 39.3885 19.2576 34.76 19.8546 31.5506C19.8878 31.3583 19.9674 30.7682 20.0801 29.9393C20.3985 27.446 20.9226 22.8706 20.9292 21.1001V21.0007C20.8894 18.1825 20.6042 15.3842 19.8878 13.249L19.8811 13.2689Z" fill="#F39200"></path><path d="M61.2354 2.38065C60.9966 1.89659 60.6716 1.45231 60.2205 1.12739C59.776 0.802467 59.2055 0.62343 58.635 0.630061C58.0712 0.630061 57.5007 0.782574 56.9103 1.04782C56.0346 1.45231 59.7163 3.5875 55.3315 12.3073C53.8124 16.3191 50.8272 23.1026 48.2136 30.2575C46.9067 33.8382 45.6861 37.5185 44.7972 41.013C43.9083 44.5076 43.3312 47.8098 43.3312 50.6811C43.3312 52.7831 43.6363 54.6663 44.4191 56.2246C44.8105 57.0004 45.3345 57.6967 45.9846 58.2537C46.6414 58.8173 47.4241 59.2417 48.3263 59.5136L50.5022 60.1767L49.5071 58.1277C49.3147 57.7497 49.1091 57.5309 48.9035 57.2458C48.5917 56.828 48.2401 56.3108 47.9349 55.4488C47.6364 54.5867 47.391 53.3865 47.3843 51.6359C47.3843 47.1533 49.0295 39.1232 55.3646 24.8002C55.5172 24.4553 55.829 23.8121 56.2071 23.0363C56.7776 21.8759 57.5139 20.4038 58.1574 19.0842C58.4825 18.4277 58.7876 17.8044 59.0331 17.2806C59.2851 16.7501 59.4841 16.3191 59.6102 16.014C61.0165 12.5858 61.859 8.83264 61.8656 5.88183C61.8656 4.53574 61.6998 3.34878 61.2288 2.36739L61.2354 2.38065Z" fill="#F39200"></path><path d="M37.6992 1.08104C37.3808 0.703076 36.9761 0.378156 36.472 0.179225C35.9744 -0.0130749 35.3841 -0.0594921 34.8268 0.0664974C34.2696 0.185856 33.7455 0.437835 33.2215 0.79591C34.5482 1.59826 34.7804 2.59292 34.661 3.55442C34.9993 4.72811 33.8782 10.6364 33.7986 11.1138C33.0689 14.9863 31.4238 21.624 30.2164 28.5136C29.6128 31.9617 29.1152 35.4762 28.903 38.7585C28.6907 42.0409 28.7504 45.0912 29.2877 47.6375C29.6857 49.5008 30.3358 51.1055 31.3972 52.3256C31.9279 52.9357 32.5647 53.4396 33.3144 53.8043C34.064 54.169 34.9131 54.3879 35.8418 54.4409L38.0972 54.5735L36.7373 52.9622C36.4786 52.6638 36.2398 52.5179 35.9811 52.3057C35.5963 52.0007 35.1519 51.6095 34.6942 50.9132C34.2364 50.217 33.7721 49.1958 33.4404 47.6441C32.5913 43.6655 32.6974 36.2056 36.1934 22.1876C36.2796 21.8494 36.4587 21.2128 36.6843 20.4503C37.0226 19.3031 37.467 17.8443 37.8518 16.5446C38.0442 15.8948 38.2233 15.2781 38.3692 14.7609C38.5151 14.237 38.6279 13.8192 38.6943 13.5142C39.424 10.1788 39.5434 6.67763 38.9928 4.06501C38.7341 2.87142 38.3493 1.85024 37.7125 1.08104H37.6992Z" fill="#F39200"></path><path d="M80.7051 73.1201C80.1479 72.2647 79.3917 71.5221 78.3966 71.0048C77.4016 70.4876 76.1876 70.2025 74.7348 70.2025C73.229 70.2025 66.1575 72.3841 64.2603 73.3191C63.8026 73.4915 63.3249 73.5909 62.8739 73.5909C62.4891 73.5909 62.1243 73.5246 61.7926 73.3721C61.295 73.1467 60.8506 72.7554 60.499 72.0526C60.1474 71.3497 59.9086 70.3152 59.9152 68.8763C59.9152 68.0275 59.9948 67.0461 60.1872 65.9122C60.2536 65.5077 60.4459 64.8115 60.7378 63.9494C61.7594 60.9191 63.9352 55.7469 65.9519 51.0256C66.9602 48.6583 67.9353 46.4037 68.7048 44.5669C69.0896 43.6519 69.4279 42.8362 69.6933 42.1665C69.9586 41.4968 70.1576 40.9729 70.2704 40.6016C71.2057 37.5248 71.6635 34.4745 71.6635 31.8752C71.6635 29.8262 71.3848 28.0491 70.7812 26.703C70.476 26.0332 70.0913 25.463 69.5805 25.0518C69.0763 24.6407 68.4395 24.3954 67.7562 24.402C67.1194 24.402 66.4627 24.5943 65.786 24.9656C64.9502 25.3966 67.6103 25.5757 67.6567 29.5079C67.6634 30.2439 67.2587 33.9905 67 35.2636C66.5754 37.3922 65.7396 40.2037 64.3465 43.8375C62.1641 48.8638 59.8025 53.9498 57.9782 58.638C56.154 63.3327 54.8604 67.623 54.8538 71.1375C54.8538 72.9411 55.2053 74.5657 56.0611 75.8985C56.9168 77.2314 58.2767 78.2194 60.1209 78.7764L60.1939 78.7963H60.2668C61.0032 78.856 61.6997 78.9289 62.4427 78.9289C63.7827 78.9289 65.2553 78.6703 67.2919 77.669C67.8557 77.3972 69.2687 76.681 70.7215 76.0378C71.4446 75.7129 72.1809 75.4145 72.8111 75.1957C73.1229 75.0896 73.4147 74.9967 73.6536 74.9437C73.8924 74.884 74.0914 74.8575 74.1909 74.8641H74.2373C75.239 74.9437 76.2672 75.2354 76.9969 75.8057C77.3618 76.0908 77.6603 76.4423 77.8726 76.8866C78.0848 77.3308 78.2175 77.8879 78.2175 78.5907C78.2175 79.844 77.7797 81.588 76.5989 83.8823C75.4181 86.1766 73.5143 89.0346 70.6352 92.5292L70.622 92.5424L70.6087 92.569C69.1095 94.671 67.9353 96.3287 67 97.6351C63.7362 100.858 64.6119 103.45 66.2438 102.84C67.126 102.084 70.224 98.4573 71.1792 97.5024C73.7133 94.9627 76.5923 91.7003 79.0998 87.9206C79.9356 86.6607 81.4415 84.2205 81.9788 81.3957C82.0717 80.6397 82.138 79.8108 82.138 78.9488C82.138 76.9794 81.813 74.8442 80.7051 73.1268V73.1201Z" fill="#F39200"></path><path d="M56.0147 113.463C55.9019 113.231 55.8091 112.993 55.7295 112.754C51.5104 118.556 47.7492 123.861 46.4357 125.897C43.9879 129.968 46.1106 128.861 46.1106 128.861L57.3215 115.042C56.7643 114.617 56.3132 114.067 56.0147 113.463Z" fill="#F39200"></path></g><defs><clipPath id="clip0_1_199"><rect width="134" height="129" fill="white"></rect></clipPath></defs></svg>